<svg width="242" height="39" viewBox="0 0 242 39" fill="none" xmlns="http://www.w3.org/2000/svg">
<path d="M0.201705 30V0.90909H12.2188C14.3968 0.90909 16.2765 1.33523 17.858 2.1875C19.4489 3.0303 20.6752 4.20928 21.5369 5.72443C22.3987 7.23011 22.8295 8.98201 22.8295 10.9801C22.8295 12.9877 22.3892 14.7443 21.5085 16.25C20.6373 17.7462 19.392 18.9062 17.7727 19.7301C16.1534 20.554 14.2311 20.9659 12.0057 20.9659H4.59091V15.4261H10.6989C11.7595 15.4261 12.6449 15.2415 13.3551 14.8722C14.0748 14.5028 14.6193 13.9867 14.9886 13.3239C15.358 12.6515 15.5426 11.8703 15.5426 10.9801C15.5426 10.0805 15.358 9.30398 14.9886 8.65057C14.6193 7.98769 14.0748 7.47633 13.3551 7.11648C12.6354 6.75663 11.75 6.5767 10.6989 6.5767H7.23295V30H0.201705ZM36.0504 30.4119C33.7588 30.4119 31.7891 29.9432 30.1413 29.0057C28.5031 28.0587 27.2389 26.7424 26.3487 25.0568C25.468 23.3617 25.0277 21.3968 25.0277 19.1619C25.0277 16.9176 25.468 14.9527 26.3487 13.267C27.2389 11.572 28.5031 10.2557 30.1413 9.31818C31.7891 8.37121 33.7588 7.89773 36.0504 7.89773C38.3421 7.89773 40.3071 8.37121 41.9453 9.31818C43.593 10.2557 44.8572 11.572 45.7379 13.267C46.6281 14.9527 47.0732 16.9176 47.0732 19.1619C47.0732 21.3968 46.6281 23.3617 45.7379 25.0568C44.8572 26.7424 43.593 28.0587 41.9453 29.0057C40.3071 29.9432 38.3421 30.4119 36.0504 30.4119ZM36.093 25.1705C36.9264 25.1705 37.6319 24.9148 38.2095 24.4034C38.7872 23.892 39.2275 23.1818 39.5305 22.2727C39.843 21.3636 39.9993 20.3125 39.9993 19.1193C39.9993 17.9072 39.843 16.8466 39.5305 15.9375C39.2275 15.0284 38.7872 14.3182 38.2095 13.8068C37.6319 13.2955 36.9264 13.0398 36.093 13.0398C35.2313 13.0398 34.5021 13.2955 33.9055 13.8068C33.3184 14.3182 32.8686 15.0284 32.5561 15.9375C32.2531 16.8466 32.1016 17.9072 32.1016 19.1193C32.1016 20.3125 32.2531 21.3636 32.5561 22.2727C32.8686 23.1818 33.3184 23.892 33.9055 24.4034C34.5021 24.9148 35.2313 25.1705 36.093 25.1705ZM54.2393 30L48.5575 8.18182H55.532L58.4723 22.1591H58.657L61.8104 8.18182H68.6143L71.853 22.0597H72.0376L74.8928 8.18182H81.8672L76.1712 30H68.7422L65.3331 17.2869H65.0916L61.6825 30H54.2393ZM94.3849 30.4119C92.1027 30.4119 90.133 29.9621 88.4759 29.0625C86.8281 28.1534 85.5592 26.8608 84.669 25.1847C83.7884 23.4991 83.348 21.4962 83.348 19.1761C83.348 16.9223 83.7931 14.9527 84.6832 13.267C85.5734 11.572 86.8281 10.2557 88.4474 9.31818C90.0668 8.37121 91.9749 7.89773 94.1719 7.89773C95.7249 7.89773 97.1454 8.1392 98.4332 8.62216C99.7211 9.10511 100.834 9.82008 101.771 10.767C102.709 11.714 103.438 12.8835 103.959 14.2756C104.48 15.6581 104.74 17.2443 104.74 19.0341V20.767H85.777V16.733H98.277C98.2675 15.9943 98.0923 15.3362 97.7514 14.7585C97.4105 14.1809 96.9418 13.7311 96.3452 13.4091C95.758 13.0777 95.081 12.9119 94.3139 12.9119C93.5374 12.9119 92.8414 13.0871 92.2259 13.4375C91.6103 13.7784 91.1226 14.2472 90.7628 14.8438C90.4029 15.4309 90.2135 16.0985 90.1946 16.8466V20.9517C90.1946 21.8419 90.3698 22.6231 90.7202 23.2955C91.0705 23.9583 91.5677 24.4744 92.2116 24.8438C92.8556 25.2131 93.6226 25.3977 94.5128 25.3977C95.1283 25.3977 95.687 25.3125 96.1889 25.142C96.6908 24.9716 97.1217 24.7206 97.4815 24.3892C97.8414 24.0578 98.1113 23.6506 98.2912 23.1676L104.669 23.3523C104.404 24.7822 103.821 26.0275 102.922 27.0881C102.032 28.1392 100.862 28.9583 99.4134 29.5455C97.9645 30.1231 96.2884 30.4119 94.3849 30.4119ZM108.288 30V8.18182H115.035V12.1591H115.262C115.66 10.7197 116.308 9.64962 117.208 8.94886C118.108 8.23864 119.154 7.88352 120.347 7.88352C120.669 7.88352 121.001 7.9072 121.342 7.95455C121.683 7.99242 122 8.05398 122.293 8.1392V14.1761C121.962 14.0625 121.526 13.9725 120.987 13.9062C120.456 13.84 119.983 13.8068 119.566 13.8068C118.742 13.8068 117.999 13.9915 117.336 14.3608C116.683 14.7206 116.166 15.2273 115.788 15.8807C115.418 16.5246 115.234 17.2822 115.234 18.1534V30H108.288ZM144.214 10.4119C144.054 9.81534 143.817 9.28977 143.504 8.83523C143.192 8.37121 142.808 7.97822 142.354 7.65625C141.899 7.33428 141.378 7.0928 140.791 6.93182C140.204 6.76136 139.56 6.67614 138.859 6.67614C137.448 6.67614 136.227 7.01704 135.195 7.69886C134.172 8.38068 133.381 9.375 132.822 10.6818C132.264 11.9792 131.984 13.5559 131.984 15.4119C131.984 17.2775 132.254 18.8684 132.794 20.1847C133.334 21.5009 134.115 22.5047 135.138 23.196C136.161 23.8873 137.401 24.233 138.859 24.233C140.147 24.233 141.236 24.0246 142.126 23.608C143.026 23.1818 143.708 22.5805 144.172 21.804C144.636 21.0275 144.868 20.1136 144.868 19.0625L146.175 19.2188H139.101V14.0909H151.643V17.9403C151.643 20.5445 151.089 22.7746 149.982 24.6307C148.883 26.4867 147.368 27.9119 145.436 28.9062C143.514 29.9006 141.303 30.3977 138.803 30.3977C136.028 30.3977 133.589 29.7964 131.487 28.5938C129.385 27.3911 127.747 25.6771 126.572 23.4517C125.398 21.2169 124.811 18.5653 124.811 15.4972C124.811 13.1108 125.166 10.9943 125.876 9.14773C126.587 7.29167 127.576 5.7197 128.845 4.43182C130.124 3.14394 131.601 2.16856 133.277 1.50568C134.963 0.842802 136.776 0.511363 138.717 0.511363C140.403 0.511363 141.97 0.75284 143.419 1.2358C144.877 1.71875 146.165 2.40057 147.283 3.28125C148.41 4.16193 149.323 5.20833 150.024 6.42045C150.725 7.63258 151.161 8.96307 151.331 10.4119H144.214ZM155.788 30V8.18182H162.535V12.1591H162.762C163.16 10.7197 163.808 9.64962 164.708 8.94886C165.608 8.23864 166.654 7.88352 167.847 7.88352C168.169 7.88352 168.501 7.9072 168.842 7.95455C169.183 7.99242 169.5 8.05398 169.793 8.1392V14.1761C169.462 14.0625 169.026 13.9725 168.487 13.9062C167.956 13.84 167.483 13.8068 167.066 13.8068C166.242 13.8068 165.499 13.9915 164.836 14.3608C164.183 14.7206 163.666 15.2273 163.288 15.8807C162.918 16.5246 162.734 17.2822 162.734 18.1534V30H155.788ZM177.954 30.3693C176.562 30.3693 175.326 30.1373 174.246 29.6733C173.176 29.1998 172.329 28.4896 171.704 27.5426C171.088 26.5862 170.781 25.3883 170.781 23.9489C170.781 22.7367 170.994 21.714 171.42 20.8807C171.846 20.0473 172.433 19.3703 173.181 18.8494C173.929 18.3286 174.791 17.9356 175.766 17.6705C176.742 17.3958 177.783 17.2112 178.891 17.1165C180.132 17.0028 181.131 16.8845 181.888 16.7614C182.646 16.6288 183.195 16.4441 183.536 16.2074C183.887 15.9612 184.062 15.6155 184.062 15.1705V15.0994C184.062 14.3703 183.811 13.8068 183.309 13.4091C182.807 13.0114 182.13 12.8125 181.278 12.8125C180.359 12.8125 179.621 13.0114 179.062 13.4091C178.503 13.8068 178.148 14.3561 177.996 15.0568L171.59 14.8295C171.78 13.5038 172.267 12.3201 173.053 11.2784C173.849 10.2273 174.938 9.40341 176.32 8.80682C177.712 8.20076 179.384 7.89773 181.335 7.89773C182.727 7.89773 184.01 8.06345 185.184 8.39489C186.358 8.71686 187.381 9.19034 188.252 9.81534C189.123 10.4309 189.796 11.1884 190.269 12.0881C190.752 12.9877 190.994 14.0152 190.994 15.1705V30H184.46V26.9602H184.289C183.901 27.6989 183.404 28.3239 182.798 28.8352C182.201 29.3466 181.496 29.7301 180.681 29.9858C179.876 30.2415 178.967 30.3693 177.954 30.3693ZM180.099 25.8239C180.847 25.8239 181.519 25.6723 182.116 25.3693C182.722 25.0663 183.205 24.6496 183.565 24.1193C183.924 23.5795 184.104 22.9545 184.104 22.2443V20.1705C183.906 20.2746 183.664 20.3693 183.38 20.4545C183.105 20.5398 182.802 20.6203 182.471 20.696C182.139 20.7718 181.799 20.8381 181.448 20.8949C181.098 20.9517 180.762 21.0038 180.44 21.0511C179.786 21.1553 179.228 21.3163 178.763 21.5341C178.309 21.7519 177.959 22.036 177.712 22.3864C177.476 22.7273 177.357 23.1345 177.357 23.608C177.357 24.3277 177.613 24.8769 178.124 25.2557C178.645 25.6345 179.303 25.8239 180.099 25.8239ZM195.241 38.1818V8.18182H202.116V11.9176H202.329C202.613 11.2547 203.015 10.6155 203.536 10C204.067 9.38447 204.739 8.88258 205.553 8.49432C206.377 8.09659 207.362 7.89773 208.508 7.89773C210.023 7.89773 211.439 8.29545 212.755 9.09091C214.081 9.88636 215.151 11.1127 215.965 12.7699C216.78 14.4271 217.187 16.5388 217.187 19.1051C217.187 21.5767 216.794 23.6458 216.008 25.3125C215.231 26.9792 214.18 28.2292 212.854 29.0625C211.538 29.8958 210.075 30.3125 208.465 30.3125C207.367 30.3125 206.415 30.1326 205.61 29.7727C204.805 29.4129 204.128 28.9394 203.579 28.3523C203.039 27.7652 202.622 27.1354 202.329 26.4631H202.187V38.1818H195.241ZM202.045 19.0909C202.045 20.2652 202.201 21.2879 202.513 22.1591C202.835 23.0303 203.295 23.7074 203.891 24.1903C204.497 24.6638 205.222 24.9006 206.065 24.9006C206.917 24.9006 207.641 24.6638 208.238 24.1903C208.835 23.7074 209.284 23.0303 209.587 22.1591C209.9 21.2879 210.056 20.2652 210.056 19.0909C210.056 17.9167 209.9 16.8987 209.587 16.0369C209.284 15.1752 208.835 14.5076 208.238 14.0341C207.651 13.5606 206.926 13.3239 206.065 13.3239C205.212 13.3239 204.488 13.5559 203.891 14.0199C203.295 14.4839 202.835 15.1468 202.513 16.0085C202.201 16.8703 202.045 17.8977 202.045 19.0909ZM227.773 17.5568V30H220.827V0.90909H227.545V12.1875H227.787C228.279 10.8428 229.084 9.79167 230.202 9.03409C231.329 8.27652 232.706 7.89773 234.335 7.89773C235.869 7.89773 237.205 8.23864 238.341 8.92045C239.477 9.5928 240.358 10.5445 240.983 11.7756C241.617 13.0066 241.93 14.446 241.92 16.0938V30H234.974V17.4574C234.984 16.2453 234.681 15.2983 234.065 14.6165C233.45 13.9347 232.583 13.5938 231.466 13.5938C230.737 13.5938 230.093 13.7547 229.534 14.0767C228.985 14.3892 228.554 14.839 228.241 15.4261C227.938 16.0133 227.782 16.7235 227.773 17.5568Z" fill="#C9C9C9"/>
</svg>
