<svg width="36" height="39" viewBox="0 0 36 39" fill="none" xmlns="http://www.w3.org/2000/svg">
<g filter="url(#filter0_d_35_2)">
<path fill-rule="evenodd" clip-rule="evenodd" d="M23.2234 10.0252C23.7617 10.1486 24.0981 10.685 23.9747 11.2234C22.8682 16.0517 21.7649 19.3383 20.6817 21.4474C20.1403 22.5017 19.5792 23.3113 18.9848 23.8732C18.3839 24.4411 17.6996 24.7995 16.9456 24.8244C16.1923 24.8494 15.5443 24.5357 15.0272 24.1096C14.5163 23.6887 14.0835 23.1202 13.7185 22.5105C12.9877 21.2896 12.4208 19.7197 12.0333 18.2559C11.892 17.722 12.2102 17.1746 12.7441 17.0333C13.278 16.8919 13.8254 17.2102 13.9667 17.7441C14.3292 19.1136 14.8373 20.4854 15.4346 21.4832C15.7336 21.9828 16.0282 22.343 16.299 22.5661C16.5635 22.7841 16.7515 22.8298 16.8794 22.8255C17.0067 22.8213 17.2489 22.762 17.6109 22.4197C17.9794 22.0715 18.4175 21.4784 18.9026 20.5338C19.8726 18.645 20.9318 15.5483 22.0253 10.7766C22.1486 10.2383 22.685 9.90188 23.2234 10.0252Z" fill="#66FFED"/>
</g>
<defs>
<filter id="filter0_d_35_2" x="-0.000244141" y="-0.000244141" width="36.0005" height="38.826" filterUnits="userSpaceOnUse" color-interpolation-filters="sRGB">
<feFlood flood-opacity="0" result="BackgroundImageFix"/>
<feColorMatrix in="SourceAlpha" type="matrix" values="0 0 0 0 0 0 0 0 0 0 0 0 0 0 0 0 0 0 127 0" result="hardAlpha"/>
<feOffset dy="2"/>
<feGaussianBlur stdDeviation="6"/>
<feComposite in2="hardAlpha" operator="out"/>
<feColorMatrix type="matrix" values="0 0 0 0 0.4 0 0 0 0 1 0 0 0 0 0.929412 0 0 0 0.4 0"/>
<feBlend mode="normal" in2="BackgroundImageFix" result="effect1_dropShadow_35_2"/>
<feBlend mode="normal" in="SourceGraphic" in2="effect1_dropShadow_35_2" result="shape"/>
</filter>
</defs>
</svg>
