<svg width="41" height="31" viewBox="0 0 41 31" fill="none" xmlns="http://www.w3.org/2000/svg">
<path d="M20.5 3.875C20.8292 3.87537 21.1459 4.00143 21.3853 4.22743C21.6247 4.45343 21.7687 4.76231 21.788 5.09097C21.8073 5.41962 21.7004 5.74324 21.4891 5.9957C21.2778 6.24816 20.978 6.41041 20.6511 6.44929L20.5 6.45833H14.0417C13.7253 6.45837 13.4199 6.57453 13.1835 6.78476C12.9471 6.99499 12.796 7.28468 12.759 7.59887L12.75 7.75V23.25C12.75 23.5664 12.8662 23.8717 13.0764 24.1081C13.2866 24.3446 13.5763 24.4956 13.8905 24.5326L14.0417 24.5417H19.8542C20.1834 24.542 20.5 24.6681 20.7394 24.8941C20.9788 25.1201 21.1229 25.429 21.1422 25.7576C21.1615 26.0863 21.0545 26.4099 20.8432 26.6624C20.6319 26.9148 20.3322 27.0771 20.0053 27.116L19.8542 27.125H14.0417C13.0533 27.1251 12.1022 26.7474 11.3831 26.0693C10.6639 25.3913 10.2311 24.464 10.1731 23.4773L10.1667 23.25V7.75C10.1666 6.7616 10.5442 5.81054 11.2223 5.09141C11.9004 4.37228 12.8276 3.93944 13.8143 3.88146L14.0417 3.875H20.5ZM27.8715 10.9327L31.5244 14.5868C31.7665 14.829 31.9025 15.1575 31.9025 15.5C31.9025 15.8425 31.7665 16.171 31.5244 16.4132L27.8715 20.0673C27.6292 20.3095 27.3005 20.4455 26.9579 20.4454C26.6152 20.4453 26.2867 20.3091 26.0445 20.0667C25.8023 19.8243 25.6663 19.4957 25.6664 19.153C25.6665 18.8104 25.8027 18.4818 26.0451 18.2396L27.4931 16.7917H20.5C20.1574 16.7917 19.8289 16.6556 19.5866 16.4133C19.3444 16.1711 19.2083 15.8426 19.2083 15.5C19.2083 15.1574 19.3444 14.8289 19.5866 14.5867C19.8289 14.3444 20.1574 14.2083 20.5 14.2083H27.4931L26.0451 12.7604C25.8027 12.5182 25.6665 12.1896 25.6664 11.847C25.6663 11.5043 25.8023 11.1757 26.0445 10.9333C26.2867 10.6909 26.6152 10.5547 26.9579 10.5546C27.3005 10.5545 27.6292 10.6905 27.8715 10.9327Z" fill="#ACACAC"/>
</svg>
