<svg width="32" height="32" viewBox="0 0 32 32" fill="none" xmlns="http://www.w3.org/2000/svg">
<path d="M26 16C26.0009 14.3909 25.6096 12.8058 24.86 11.382L23.365 12.878C23.7852 13.8652 24.0012 14.9271 24 16H26ZM23.414 9.99999L22 8.58599L17.285 13.3C16.8842 13.1059 16.4453 13.0034 16 13C15.4067 13 14.8266 13.1759 14.3333 13.5056C13.8399 13.8352 13.4554 14.3038 13.2284 14.8519C13.0013 15.4001 12.9419 16.0033 13.0576 16.5853C13.1734 17.1672 13.4591 17.7018 13.8787 18.1213C14.2982 18.5409 14.8328 18.8266 15.4147 18.9423C15.9967 19.0581 16.5999 18.9987 17.148 18.7716C17.6962 18.5446 18.1648 18.1601 18.4944 17.6667C18.8241 17.1734 19 16.5933 19 16C18.9966 15.5547 18.8941 15.1158 18.7 14.715L23.414 9.99999ZM16 17C15.8022 17 15.6089 16.9413 15.4444 16.8315C15.28 16.7216 15.1518 16.5654 15.0761 16.3827C15.0004 16.2 14.9806 15.9989 15.0192 15.8049C15.0578 15.6109 15.153 15.4327 15.2929 15.2929C15.4327 15.153 15.6109 15.0578 15.8049 15.0192C15.9989 14.9806 16.2 15.0004 16.3827 15.0761C16.5654 15.1518 16.7216 15.28 16.8315 15.4444C16.9414 15.6089 17 15.8022 17 16C17 16.2652 16.8946 16.5196 16.7071 16.7071C16.5196 16.8946 16.2652 17 16 17ZM16 7.99999C17.0727 8.00021 18.1344 8.21615 19.122 8.63499L20.618 7.13899C19.0949 6.34154 17.3918 5.95081 15.6734 6.00462C13.9551 6.05843 12.2797 6.55496 10.8095 7.44614C9.33936 8.33732 8.12415 9.59297 7.28156 11.0915C6.43898 12.5901 5.99754 14.2808 6 16H8C8.00265 13.8791 8.84635 11.8458 10.3461 10.3461C11.8458 8.84634 13.8791 8.00264 16 7.99999Z" fill="#C9C9C9"/>
<path d="M16 30C13.2311 30 10.5243 29.1789 8.22201 27.6406C5.91973 26.1022 4.12531 23.9157 3.06569 21.3576C2.00606 18.7994 1.72881 15.9845 2.269 13.2687C2.8092 10.553 4.14257 8.05845 6.1005 6.10051C8.05844 4.14258 10.553 2.80921 13.2687 2.26901C15.9845 1.72882 18.7994 2.00607 21.3576 3.06569C23.9157 4.12532 26.1022 5.91973 27.6406 8.22202C29.1789 10.5243 30 13.2311 30 16C29.9958 19.7117 28.5194 23.2702 25.8948 25.8948C23.2702 28.5194 19.7117 29.9958 16 30ZM16 4.00001C13.6266 4.00001 11.3065 4.70379 9.33316 6.02237C7.35977 7.34095 5.8217 9.21509 4.91344 11.4078C4.00519 13.6005 3.76755 16.0133 4.23058 18.3411C4.6936 20.6689 5.83649 22.8071 7.51472 24.4853C9.19295 26.1635 11.3311 27.3064 13.6589 27.7694C15.9867 28.2325 18.3995 27.9948 20.5922 27.0866C22.7849 26.1783 24.6591 24.6402 25.9776 22.6668C27.2962 20.6935 28 18.3734 28 16C27.9963 12.8185 26.7308 9.76845 24.4812 7.51882C22.2316 5.26918 19.1815 4.00371 16 4.00001Z" fill="#C9C9C9"/>
</svg>
